<?xml version="1.0" encoding="utf-8"?>
<!-- Generator: Adobe Illustrator 24.0.0, SVG Export Plug-In . SVG Version: 6.00 Build 0)  -->
<svg version="1.1" xmlns="http://www.w3.org/2000/svg" xmlns:xlink="http://www.w3.org/1999/xlink" x="0px" y="0px"
	 viewBox="0 0 64 64" enable-background="new 0 0 64 64" xml:space="preserve">
<g id="Captions">
</g>
<g id="Icons">
	<g>
		<g>
			<g>
				<polygon fill="#00A0C8" points="54,27 32,5 10,27 10,38 54,38 				"/>
			</g>
			<g>
				<polygon fill="#0082AA" points="10,29.414 32,7.414 54,29.414 54,27 32,5 10,27 				"/>
			</g>
			<g>
				<path fill="#0A5078" d="M58,32c-0.256,0-0.512-0.098-0.707-0.293L32,6.414L6.707,31.707c-0.391,0.391-1.023,0.391-1.414,0
					s-0.391-1.023,0-1.414l26-26c0.391-0.391,1.023-0.391,1.414,0l26,26c0.391,0.391,0.391,1.023,0,1.414
					C58.512,31.902,58.256,32,58,32z"/>
			</g>
			<g>
				<path fill="#C80A50" d="M6,39c-0.553,0-1-0.448-1-1v-7c0-0.552,0.447-1,1-1s1,0.448,1,1v7C7,38.552,6.553,39,6,39z"/>
			</g>
			<g>
				<path fill="#C80A50" d="M58,39c-0.553,0-1-0.448-1-1v-7c0-0.552,0.447-1,1-1s1,0.448,1,1v7C59,38.552,58.553,39,58,39z"/>
			</g>
		</g>
		<g>
			<path fill="#0A5078" d="M59,60H5c-0.552,0-1-0.448-1-1V39c0-0.552,0.448-1,1-1h54c0.552,0,1,0.448,1,1v20
				C60,59.552,59.552,60,59,60z"/>
		</g>
		<g>
			<path fill="#00325A" d="M44.743,51.143l-10-4c-1.029-0.413-2.189,0.088-2.601,1.114c-0.09,0.224-0.136,0.455-0.143,0.682
				c-0.007-0.228-0.053-0.458-0.143-0.682c-0.411-1.025-1.572-1.525-2.601-1.114l-10,4c-1.025,0.41-1.524,1.574-1.114,2.6
				C18.456,54.525,19.207,55,20.001,55c0.247,0,0.498-0.046,0.742-0.144L30,51.154V59c0,0.364,0.098,0.706,0.268,1h3.464
				C33.902,59.706,34,59.364,34,59v-7.846l9.257,3.703C43.501,54.955,43.752,55,43.999,55c0.794,0,1.545-0.476,1.858-1.258
				C46.268,52.717,45.769,51.553,44.743,51.143z"/>
		</g>
		<g>
			<path fill="#00325A" d="M59,40H5c-0.552,0-1-0.448-1-1l0,0c0-0.552,0.448-1,1-1h54c0.552,0,1,0.448,1,1l0,0
				C60,39.552,59.552,40,59,40z"/>
		</g>
		<g>
			<path fill="#00A0C8" d="M32,60L32,60c-1.105,0-2-0.895-2-2v-8c0-1.105,0.895-2,2-2h0c1.105,0,2,0.895,2,2v8
				C34,59.105,33.105,60,32,60z"/>
		</g>
		<g>
			<path fill="#00A0C8" d="M43.999,54c-0.247,0-0.498-0.046-0.742-0.144l-10-4c-1.025-0.41-1.524-1.574-1.114-2.6
				c0.411-1.026,1.571-1.527,2.601-1.114l10,4c1.025,0.41,1.524,1.574,1.114,2.6C45.544,53.525,44.793,54,43.999,54z"/>
		</g>
		<g>
			<path fill="#00A0C8" d="M20.001,54c-0.794,0-1.545-0.476-1.858-1.258c-0.41-1.025,0.089-2.189,1.114-2.6l10-4
				c1.028-0.411,2.189,0.089,2.601,1.114c0.41,1.025-0.089,2.189-1.114,2.6l-10,4C20.499,53.955,20.248,54,20.001,54z"/>
		</g>
		<g>
			<path fill="#0082AA" d="M34.743,46.143c-1.029-0.413-2.189,0.088-2.601,1.114c-0.09,0.224-0.136,0.455-0.143,0.682
				c-0.007-0.228-0.053-0.458-0.143-0.682c-0.411-1.025-1.572-1.525-2.601-1.114l-5.664,2.265c0.8,1.233,1.864,2.283,3.106,3.066
				l3.3-1.32v2.647c0.294,0.06,0.593,0.107,0.895,0.139C31.968,53.056,33.01,53,34,52.799v-2.645l3.307,1.323
				c1.246-0.782,2.307-1.831,3.104-3.067L34.743,46.143z"/>
		</g>
		<g>
			<g>
				<path fill="#C80A50" d="M40,36.024V31c0-1.649-1.33-2.987-2.976-3C36.464,27.996,36,28.44,36,29l0,2c0,0.552-0.448,1-1,1
					s-1-0.448-1-1l0-8c0-0.557-0.46-1.001-1.017-1C28.02,22.009,24,26.035,24,31v2.316c0,1.565-0.413,3.086-1.074,4.505
					c-0.793,1.701-1.123,3.659-0.808,5.725c0.673,4.416,4.335,7.919,8.777,8.395C36.913,52.586,42,47.887,42,42
					C42,39.755,41.249,37.693,40,36.024z"/>
			</g>
			<g>
				<path fill="#FAB400" d="M34,37v2c0,0.552-0.448,1-1,1h0c-0.552,0-1-0.448-1-1v-6c0-0.552-0.448-1-1-1h0c-2.761,0-5,2.239-5,5
					l0,4.748c0,3.285,2.532,6.15,5.815,6.249C35.213,48.099,38,45.375,38,42v-3c0-1.657-1.343-3-3-3h0C34.448,36,34,36.448,34,37z"
					/>
			</g>
			<g>
				<path fill="#C80A50" d="M38,26L38,26c-1.105,0-2-0.895-2-2v-3c0-0.552,0.448-1,1-1h0c1.657,0,3,1.343,3,3v1
					C40,25.105,39.105,26,38,26z"/>
			</g>
		</g>
		<g>
			<circle fill="#FAB400" cx="44" cy="52" r="2"/>
		</g>
		<g>
			<circle fill="#FAB400" cx="20" cy="52" r="2"/>
		</g>
		<g>
			<circle fill="#FAB400" cx="32" cy="58" r="2"/>
		</g>
		<g>
			<circle fill="#C80A50" cx="47" cy="37" r="1"/>
		</g>
		<g>
			<circle fill="#C80A50" cx="29" cy="17" r="1"/>
		</g>
		<g>
			<circle fill="#C80A50" cx="21" cy="29" r="1"/>
		</g>
	</g>
</g>
</svg>
